{
	"asset":{
		"generator":"Khronos glTF Blender I/O v4.3.47",
		"version":"2.0"
	},
	"scene":0,
	"scenes":[
		{
			"name":"Scene",
			"nodes":[
				0,
				26
			]
		}
	],
	"nodes":[
		{
			"mesh":0,
			"name":"Mesh_0",
			"rotation":[
				-0.03729661554098129,
				0.0008681024191901088,
				-0.023253051564097404,
				0.9990333318710327
			],
			"scale":[
				2.1523282527923584,
				2.1523280143737793,
				2.1523282527923584
			],
			"translation":[
				2.794975757598877,
				-0.19133971631526947,
				0
			]
		},
		{
			"name":"b_Head_05",
			"rotation":[
				-4.376348528012386e-08,
				-9.400125122738245e-07,
				-0.40028566122055054,
				0.9163904190063477
			],
			"scale":[
				0.9999999403953552,
				0.9999999403953552,
				1
			],
			"translation":[
				13.376960754394531,
				7.629340871062595e-06,
				1.2259229151823092e-05
			]
		},
		{
			"children":[
				1
			],
			"name":"b_Neck_04",
			"rotation":[
				-1.3188115133289102e-07,
				4.5903308887318417e-07,
				0.3033789098262787,
				0.9528700113296509
			],
			"translation":[
				25.649133682250977,
				8.285024705401156e-06,
				-1.2062810128554702e-06
			]
		},
		{
			"name":"b_RightHand_08",
			"rotation":[
				-0.012037231586873531,
				-0.007822275161743164,
				0.4605628252029419,
				0.8875110745429993
			],
			"scale":[
				1,
				0.9999999403953552,
				1
			],
			"translation":[
				19.35005760192871,
				-0.14598023891448975,
				-2.3414941097144037e-06
			]
		},
		{
			"children":[
				3
			],
			"name":"b_RightForeArm_07",
			"rotation":[
				-1.9815391283373174e-07,
				-1.0009850939241005e-06,
				0.03712654858827591,
				0.9993105530738831
			],
			"translation":[
				23.045124053955078,
				3.1113624572753906e-05,
				4.283672751626e-05
			]
		},
		{
			"children":[
				4
			],
			"name":"b_RightUpperArm_06",
			"rotation":[
				0.0004680482088588178,
				-0.00044556966167874634,
				-0.7121798992156982,
				0.7019967436790466
			],
			"scale":[
				0.9999998807907104,
				0.9999998807907104,
				1
			],
			"translation":[
				18.677906036376953,
				-4.297327041625977,
				6.967575550079346
			]
		},
		{
			"name":"b_LeftHand_011",
			"rotation":[
				0.01651778630912304,
				0.01401321217417717,
				0.46007612347602844,
				0.8876152038574219
			],
			"scale":[
				1.0000001192092896,
				1,
				1
			],
			"translation":[
				19.350051879882812,
				-0.1459829956293106,
				1.817988231778145e-05
			]
		},
		{
			"children":[
				6
			],
			"name":"b_LeftForeArm_010",
			"rotation":[
				-4.7754564747037875e-08,
				9.179310609397362e-07,
				0.03712568059563637,
				0.9993106126785278
			],
			"scale":[
				0.9999999403953552,
				0.9999998807907104,
				1
			],
			"translation":[
				23.04513168334961,
				-3.227032721042633e-06,
				-2.086721360683441e-05
			]
		},
		{
			"children":[
				7
			],
			"name":"b_LeftUpperArm_09",
			"rotation":[
				0.0004968922585248947,
				-0.000882525579072535,
				-0.7120874524116516,
				0.7020900845527649
			],
			"translation":[
				18.67790412902832,
				-4.297337532043457,
				-6.967987537384033
			]
		},
		{
			"children":[
				2,
				5,
				8
			],
			"name":"b_Spine02_03",
			"rotation":[
				-7.152843650715113e-09,
				-4.577541403705254e-07,
				0.017412004992365837,
				0.9998484253883362
			],
			"scale":[
				1,
				1.0000001192092896,
				1
			],
			"translation":[
				21.65574836730957,
				-0.00011547655594768003,
				1.8810545952874236e-05
			]
		},
		{
			"children":[
				9
			],
			"name":"b_Spine01_02",
			"rotation":[
				4.1827357222246064e-07,
				1.2164201734776725e-07,
				-0.5904167294502258,
				0.8070985674858093
			],
			"translation":[
				12.850597381591797,
				-3.24249267578125e-05,
				7.293310773093253e-06
			]
		},
		{
			"name":"b_Tail03_014",
			"rotation":[
				2.281700162143352e-08,
				8.100143134015525e-08,
				-0.053832631558179855,
				0.9985499382019043
			],
			"translation":[
				24.240346908569336,
				2.2888149032951333e-05,
				8.307850293931551e-06
			]
		},
		{
			"children":[
				11
			],
			"name":"b_Tail02_013",
			"rotation":[
				2.293627510141505e-08,
				1.32251676276951e-08,
				-0.06961745768785477,
				0.9975737929344177
			],
			"scale":[
				0.9999999403953552,
				1.0000001192092896,
				1
			],
			"translation":[
				12.411919593811035,
				1.9073462681262754e-05,
				3.924804332200438e-06
			]
		},
		{
			"children":[
				12
			],
			"name":"b_Tail01_012",
			"rotation":[
				-4.3131669258400507e-07,
				-1.8718870009593047e-08,
				0.9818927049636841,
				0.18943804502487183
			],
			"scale":[
				0.9999994039535522,
				1,
				1
			],
			"translation":[
				4.260408401489258,
				15.95875358581543,
				2.3338047867582645e-06
			]
		},
		{
			"name":"b_LeftFoot02_018",
			"rotation":[
				5.565921057382184e-08,
				4.294370015145432e-08,
				0.5472885966300964,
				0.8369439840316772
			],
			"scale":[
				0.9999998807907104,
				0.9999998807907104,
				1
			],
			"translation":[
				15.779932975769043,
				-5.439622327685356e-06,
				-4.601010004989803e-06
			]
		},
		{
			"children":[
				14
			],
			"name":"b_LeftFoot01_017",
			"rotation":[
				0.0002483809366822243,
				-1.6088199572550366e-07,
				0.4584846496582031,
				0.8887023329734802
			],
			"scale":[
				0.9999999403953552,
				0.9999999403953552,
				0.9999999403953552
			],
			"translation":[
				17.94280433654785,
				2.7067959308624268e-05,
				1.019041519612074e-06
			]
		},
		{
			"children":[
				15
			],
			"name":"b_LeftLeg02_016",
			"rotation":[
				1.0861517552029909e-07,
				-4.04892603000917e-07,
				-0.36804354190826416,
				0.9298085570335388
			],
			"translation":[
				18.94416618347168,
				1.3681827113032341e-05,
				1.8092221580445766e-05
			]
		},
		{
			"children":[
				16
			],
			"name":"b_LeftLeg01_015",
			"rotation":[
				7.153627166189835e-07,
				0.0001718297862680629,
				-0.9700163006782532,
				0.24303974211215973
			],
			"scale":[
				1.000000238418579,
				1,
				1
			],
			"translation":[
				4.813786029815674,
				5.1540069580078125,
				-6.968003273010254
			]
		},
		{
			"name":"b_RightFoot02_022",
			"rotation":[
				-1.2671610249981313e-07,
				3.5850376889356994e-07,
				0.5472877621650696,
				0.8369445204734802
			],
			"scale":[
				1,
				0.9999998807907104,
				1
			],
			"translation":[
				15.779942512512207,
				-1.9174418412148952e-05,
				-3.7392637750599533e-06
			]
		},
		{
			"children":[
				18
			],
			"name":"b_RightFoot01_021",
			"rotation":[
				-0.00015321663522627205,
				3.3067192362068454e-07,
				0.45790988206863403,
				0.8889986276626587
			],
			"scale":[
				1,
				0.9999999403953552,
				0.9999999403953552
			],
			"translation":[
				17.942819595336914,
				9.267341738450341e-08,
				-1.9734810848603956e-05
			]
		},
		{
			"children":[
				19
			],
			"name":"b_RightLeg02_020",
			"rotation":[
				-2.0576743509082007e-07,
				-3.3892689543790766e-07,
				-0.3680439889431,
				0.9298084378242493
			],
			"scale":[
				0.9999999403953552,
				0.9999999403953552,
				1
			],
			"translation":[
				18.944194793701172,
				-1.3081251381663606e-05,
				-5.332010914571583e-06
			]
		},
		{
			"children":[
				20
			],
			"name":"b_RightLeg01_019",
			"rotation":[
				9.691870417327664e-08,
				-1.3139367638359545e-07,
				-0.9699587821960449,
				0.24326933920383453
			],
			"scale":[
				0.9999993443489075,
				0.9999999403953552,
				1
			],
			"translation":[
				4.813785076141357,
				5.154016494750977,
				6.967566013336182
			]
		},
		{
			"children":[
				10,
				13,
				17,
				21
			],
			"name":"b_Hip_01",
			"rotation":[
				0.12769024074077606,
				-0.6954819560050964,
				-0.127689391374588,
				0.6954821944236755
			],
			"scale":[
				0.9999999403953552,
				1,
				1
			],
			"translation":[
				-1.7494729623312999e-12,
				26.748403549194336,
				42.93817138671875
			]
		},
		{
			"children":[
				22
			],
			"name":"b_Root_00",
			"rotation":[
				-0.7071080207824707,
				-1.210159705777869e-08,
				-1.2101639690342836e-08,
				0.7071055173873901
			]
		},
		{
			"children":[
				23
			],
			"name":"_rootJoint",
			"rotation":[
				-8.557136332854043e-09,
				1.7114272665708086e-08,
				-2.928983286277023e-16,
				1
			]
		},
		{
			"mesh":1,
			"name":"fox",
			"skin":0
		},
		{
			"children":[
				25,
				24
			],
			"name":"root"
		}
	],
	"animations":[
		{
			"channels":[
				{
					"sampler":0,
					"target":{
						"node":24,
						"path":"translation"
					}
				},
				{
					"sampler":1,
					"target":{
						"node":24,
						"path":"rotation"
					}
				},
				{
					"sampler":2,
					"target":{
						"node":24,
						"path":"scale"
					}
				},
				{
					"sampler":3,
					"target":{
						"node":23,
						"path":"translation"
					}
				},
				{
					"sampler":4,
					"target":{
						"node":23,
						"path":"rotation"
					}
				},
				{
					"sampler":5,
					"target":{
						"node":23,
						"path":"scale"
					}
				},
				{
					"sampler":6,
					"target":{
						"node":22,
						"path":"translation"
					}
				},
				{
					"sampler":7,
					"target":{
						"node":22,
						"path":"rotation"
					}
				},
				{
					"sampler":8,
					"target":{
						"node":22,
						"path":"scale"
					}
				},
				{
					"sampler":9,
					"target":{
						"node":10,
						"path":"translation"
					}
				},
				{
					"sampler":10,
					"target":{
						"node":10,
						"path":"rotation"
					}
				},
				{
					"sampler":11,
					"target":{
						"node":10,
						"path":"scale"
					}
				},
				{
					"sampler":12,
					"target":{
						"node":9,
						"path":"translation"
					}
				},
				{
					"sampler":13,
					"target":{
						"node":9,
						"path":"rotation"
					}
				},
				{
					"sampler":14,
					"target":{
						"node":9,
						"path":"scale"
					}
				},
				{
					"sampler":15,
					"target":{
						"node":2,
						"path":"translation"
					}
				},
				{
					"sampler":16,
					"target":{
						"node":2,
						"path":"rotation"
					}
				},
				{
					"sampler":17,
					"target":{
						"node":2,
						"path":"scale"
					}
				},
				{
					"sampler":18,
					"target":{
						"node":1,
						"path":"translation"
					}
				},
				{
					"sampler":19,
					"target":{
						"node":1,
						"path":"rotation"
					}
				},
				{
					"sampler":20,
					"target":{
						"node":1,
						"path":"scale"
					}
				},
				{
					"sampler":21,
					"target":{
						"node":5,
						"path":"translation"
					}
				},
				{
					"sampler":22,
					"target":{
						"node":5,
						"path":"rotation"
					}
				},
				{
					"sampler":23,
					"target":{
						"node":5,
						"path":"scale"
					}
				},
				{
					"sampler":24,
					"target":{
						"node":4,
						"path":"translation"
					}
				},
				{
					"sampler":25,
					"target":{
						"node":4,
						"path":"rotation"
					}
				},
				{
					"sampler":26,
					"target":{
						"node":4,
						"path":"scale"
					}
				},
				{
					"sampler":27,
					"target":{
						"node":3,
						"path":"translation"
					}
				},
				{
					"sampler":28,
					"target":{
						"node":3,
						"path":"rotation"
					}
				},
				{
					"sampler":29,
					"target":{
						"node":3,
						"path":"scale"
					}
				},
				{
					"sampler":30,
					"target":{
						"node":8,
						"path":"translation"
					}
				},
				{
					"sampler":31,
					"target":{
						"node":8,
						"path":"rotation"
					}
				},
				{
					"sampler":32,
					"target":{
						"node":8,
						"path":"scale"
					}
				},
				{
					"sampler":33,
					"target":{
						"node":7,
						"path":"translation"
					}
				},
				{
					"sampler":34,
					"target":{
						"node":7,
						"path":"rotation"
					}
				},
				{
					"sampler":35,
					"target":{
						"node":7,
						"path":"scale"
					}
				},
				{
					"sampler":36,
					"target":{
						"node":6,
						"path":"translation"
					}
				},
				{
					"sampler":37,
					"target":{
						"node":6,
						"path":"rotation"
					}
				},
				{
					"sampler":38,
					"target":{
						"node":6,
						"path":"scale"
					}
				},
				{
					"sampler":39,
					"target":{
						"node":13,
						"path":"translation"
					}
				},
				{
					"sampler":40,
					"target":{
						"node":13,
						"path":"rotation"
					}
				},
				{
					"sampler":41,
					"target":{
						"node":13,
						"path":"scale"
					}
				},
				{
					"sampler":42,
					"target":{
						"node":12,
						"path":"translation"
					}
				},
				{
					"sampler":43,
					"target":{
						"node":12,
						"path":"rotation"
					}
				},
				{
					"sampler":44,
					"target":{
						"node":12,
						"path":"scale"
					}
				},
				{
					"sampler":45,
					"target":{
						"node":11,
						"path":"translation"
					}
				},
				{
					"sampler":46,
					"target":{
						"node":11,
						"path":"rotation"
					}
				},
				{
					"sampler":47,
					"target":{
						"node":11,
						"path":"scale"
					}
				},
				{
					"sampler":48,
					"target":{
						"node":17,
						"path":"translation"
					}
				},
				{
					"sampler":49,
					"target":{
						"node":17,
						"path":"rotation"
					}
				},
				{
					"sampler":50,
					"target":{
						"node":17,
						"path":"scale"
					}
				},
				{
					"sampler":51,
					"target":{
						"node":16,
						"path":"translation"
					}
				},
				{
					"sampler":52,
					"target":{
						"node":16,
						"path":"rotation"
					}
				},
				{
					"sampler":53,
					"target":{
						"node":16,
						"path":"scale"
					}
				},
				{
					"sampler":54,
					"target":{
						"node":15,
						"path":"translation"
					}
				},
				{
					"sampler":55,
					"target":{
						"node":15,
						"path":"rotation"
					}
				},
				{
					"sampler":56,
					"target":{
						"node":15,
						"path":"scale"
					}
				},
				{
					"sampler":57,
					"target":{
						"node":14,
						"path":"translation"
					}
				},
				{
					"sampler":58,
					"target":{
						"node":14,
						"path":"rotation"
					}
				},
				{
					"sampler":59,
					"target":{
						"node":14,
						"path":"scale"
					}
				},
				{
					"sampler":60,
					"target":{
						"node":21,
						"path":"translation"
					}
				},
				{
					"sampler":61,
					"target":{
						"node":21,
						"path":"rotation"
					}
				},
				{
					"sampler":62,
					"target":{
						"node":21,
						"path":"scale"
					}
				},
				{
					"sampler":63,
					"target":{
						"node":20,
						"path":"translation"
					}
				},
				{
					"sampler":64,
					"target":{
						"node":20,
						"path":"rotation"
					}
				},
				{
					"sampler":65,
					"target":{
						"node":20,
						"path":"scale"
					}
				},
				{
					"sampler":66,
					"target":{
						"node":19,
						"path":"translation"
					}
				},
				{
					"sampler":67,
					"target":{
						"node":19,
						"path":"rotation"
					}
				},
				{
					"sampler":68,
					"target":{
						"node":19,
						"path":"scale"
					}
				},
				{
					"sampler":69,
					"target":{
						"node":18,
						"path":"translation"
					}
				},
				{
					"sampler":70,
					"target":{
						"node":18,
						"path":"rotation"
					}
				},
				{
					"sampler":71,
					"target":{
						"node":18,
						"path":"scale"
					}
				}
			],
			"name":"Run",
			"samplers":[
				{
					"input":11,
					"interpolation":"STEP",
					"output":12
				},
				{
					"input":11,
					"interpolation":"STEP",
					"output":13
				},
				{
					"input":11,
					"interpolation":"STEP",
					"output":14
				},
				{
					"input":11,
					"interpolation":"STEP",
					"output":15
				},
				{
					"input":11,
					"interpolation":"STEP",
					"output":16
				},
				{
					"input":11,
					"interpolation":"STEP",
					"output":17
				},
				{
					"input":18,
					"interpolation":"LINEAR",
					"output":19
				},
				{
					"input":18,
					"interpolation":"LINEAR",
					"output":20
				},
				{
					"input":11,
					"interpolation":"STEP",
					"output":21
				},
				{
					"input":11,
					"interpolation":"STEP",
					"output":22
				},
				{
					"input":18,
					"interpolation":"LINEAR",
					"output":23
				},
				{
					"input":11,
					"interpolation":"STEP",
					"output":24
				},
				{
					"input":11,
					"interpolation":"STEP",
					"output":25
				},
				{
					"input":18,
					"interpolation":"LINEAR",
					"output":26
				},
				{
					"input":11,
					"interpolation":"STEP",
					"output":27
				},
				{
					"input":11,
					"interpolation":"STEP",
					"output":28
				},
				{
					"input":18,
					"interpolation":"LINEAR",
					"output":29
				},
				{
					"input":11,
					"interpolation":"STEP",
					"output":30
				},
				{
					"input":11,
					"interpolation":"STEP",
					"output":31
				},
				{
					"input":18,
					"interpolation":"LINEAR",
					"output":32
				},
				{
					"input":11,
					"interpolation":"STEP",
					"output":33
				},
				{
					"input":11,
					"interpolation":"STEP",
					"output":34
				},
				{
					"input":18,
					"interpolation":"LINEAR",
					"output":35
				},
				{
					"input":11,
					"interpolation":"STEP",
					"output":36
				},
				{
					"input":11,
					"interpolation":"STEP",
					"output":37
				},
				{
					"input":18,
					"interpolation":"LINEAR",
					"output":38
				},
				{
					"input":11,
					"interpolation":"STEP",
					"output":39
				},
				{
					"input":11,
					"interpolation":"STEP",
					"output":40
				},
				{
					"input":18,
					"interpolation":"LINEAR",
					"output":41
				},
				{
					"input":11,
					"interpolation":"STEP",
					"output":42
				},
				{
					"input":11,
					"interpolation":"STEP",
					"output":43
				},
				{
					"input":18,
					"interpolation":"LINEAR",
					"output":44
				},
				{
					"input":11,
					"interpolation":"STEP",
					"output":45
				},
				{
					"input":11,
					"interpolation":"STEP",
					"output":46
				},
				{
					"input":18,
					"interpolation":"LINEAR",
					"output":47
				},
				{
					"input":11,
					"interpolation":"STEP",
					"output":48
				},
				{
					"input":11,
					"interpolation":"STEP",
					"output":49
				},
				{
					"input":18,
					"interpolation":"LINEAR",
					"output":50
				},
				{
					"input":11,
					"interpolation":"STEP",
					"output":51
				},
				{
					"input":11,
					"interpolation":"STEP",
					"output":52
				},
				{
					"input":18,
					"interpolation":"LINEAR",
					"output":53
				},
				{
					"input":11,
					"interpolation":"STEP",
					"output":54
				},
				{
					"input":11,
					"interpolation":"STEP",
					"output":55
				},
				{
					"input":18,
					"interpolation":"LINEAR",
					"output":56
				},
				{
					"input":11,
					"interpolation":"STEP",
					"output":57
				},
				{
					"input":11,
					"interpolation":"STEP",
					"output":58
				},
				{
					"input":18,
					"interpolation":"LINEAR",
					"output":59
				},
				{
					"input":11,
					"interpolation":"STEP",
					"output":60
				},
				{
					"input":11,
					"interpolation":"STEP",
					"output":61
				},
				{
					"input":18,
					"interpolation":"LINEAR",
					"output":62
				},
				{
					"input":11,
					"interpolation":"STEP",
					"output":63
				},
				{
					"input":11,
					"interpolation":"STEP",
					"output":64
				},
				{
					"input":18,
					"interpolation":"LINEAR",
					"output":65
				},
				{
					"input":11,
					"interpolation":"STEP",
					"output":66
				},
				{
					"input":11,
					"interpolation":"STEP",
					"output":67
				},
				{
					"input":18,
					"interpolation":"LINEAR",
					"output":68
				},
				{
					"input":11,
					"interpolation":"STEP",
					"output":69
				},
				{
					"input":11,
					"interpolation":"STEP",
					"output":70
				},
				{
					"input":11,
					"interpolation":"STEP",
					"output":71
				},
				{
					"input":11,
					"interpolation":"STEP",
					"output":72
				},
				{
					"input":11,
					"interpolation":"STEP",
					"output":73
				},
				{
					"input":18,
					"interpolation":"LINEAR",
					"output":74
				},
				{
					"input":11,
					"interpolation":"STEP",
					"output":75
				},
				{
					"input":11,
					"interpolation":"STEP",
					"output":76
				},
				{
					"input":18,
					"interpolation":"LINEAR",
					"output":77
				},
				{
					"input":11,
					"interpolation":"STEP",
					"output":78
				},
				{
					"input":11,
					"interpolation":"STEP",
					"output":79
				},
				{
					"input":18,
					"interpolation":"LINEAR",
					"output":80
				},
				{
					"input":11,
					"interpolation":"STEP",
					"output":81
				},
				{
					"input":11,
					"interpolation":"STEP",
					"output":82
				},
				{
					"input":11,
					"interpolation":"STEP",
					"output":83
				},
				{
					"input":11,
					"interpolation":"STEP",
					"output":84
				}
			]
		},
		{
			"channels":[
				{
					"sampler":0,
					"target":{
						"node":24,
						"path":"translation"
					}
				},
				{
					"sampler":1,
					"target":{
						"node":24,
						"path":"rotation"
					}
				},
				{
					"sampler":2,
					"target":{
						"node":24,
						"path":"scale"
					}
				},
				{
					"sampler":3,
					"target":{
						"node":23,
						"path":"translation"
					}
				},
				{
					"sampler":4,
					"target":{
						"node":23,
						"path":"rotation"
					}
				},
				{
					"sampler":5,
					"target":{
						"node":23,
						"path":"scale"
					}
				},
				{
					"sampler":6,
					"target":{
						"node":22,
						"path":"translation"
					}
				},
				{
					"sampler":7,
					"target":{
						"node":22,
						"path":"rotation"
					}
				},
				{
					"sampler":8,
					"target":{
						"node":22,
						"path":"scale"
					}
				},
				{
					"sampler":9,
					"target":{
						"node":10,
						"path":"translation"
					}
				},
				{
					"sampler":10,
					"target":{
						"node":10,
						"path":"rotation"
					}
				},
				{
					"sampler":11,
					"target":{
						"node":10,
						"path":"scale"
					}
				},
				{
					"sampler":12,
					"target":{
						"node":9,
						"path":"translation"
					}
				},
				{
					"sampler":13,
					"target":{
						"node":9,
						"path":"rotation"
					}
				},
				{
					"sampler":14,
					"target":{
						"node":9,
						"path":"scale"
					}
				},
				{
					"sampler":15,
					"target":{
						"node":2,
						"path":"translation"
					}
				},
				{
					"sampler":16,
					"target":{
						"node":2,
						"path":"rotation"
					}
				},
				{
					"sampler":17,
					"target":{
						"node":2,
						"path":"scale"
					}
				},
				{
					"sampler":18,
					"target":{
						"node":1,
						"path":"translation"
					}
				},
				{
					"sampler":19,
					"target":{
						"node":1,
						"path":"rotation"
					}
				},
				{
					"sampler":20,
					"target":{
						"node":1,
						"path":"scale"
					}
				},
				{
					"sampler":21,
					"target":{
						"node":5,
						"path":"translation"
					}
				},
				{
					"sampler":22,
					"target":{
						"node":5,
						"path":"rotation"
					}
				},
				{
					"sampler":23,
					"target":{
						"node":5,
						"path":"scale"
					}
				},
				{
					"sampler":24,
					"target":{
						"node":4,
						"path":"translation"
					}
				},
				{
					"sampler":25,
					"target":{
						"node":4,
						"path":"rotation"
					}
				},
				{
					"sampler":26,
					"target":{
						"node":4,
						"path":"scale"
					}
				},
				{
					"sampler":27,
					"target":{
						"node":3,
						"path":"translation"
					}
				},
				{
					"sampler":28,
					"target":{
						"node":3,
						"path":"rotation"
					}
				},
				{
					"sampler":29,
					"target":{
						"node":3,
						"path":"scale"
					}
				},
				{
					"sampler":30,
					"target":{
						"node":8,
						"path":"translation"
					}
				},
				{
					"sampler":31,
					"target":{
						"node":8,
						"path":"rotation"
					}
				},
				{
					"sampler":32,
					"target":{
						"node":8,
						"path":"scale"
					}
				},
				{
					"sampler":33,
					"target":{
						"node":7,
						"path":"translation"
					}
				},
				{
					"sampler":34,
					"target":{
						"node":7,
						"path":"rotation"
					}
				},
				{
					"sampler":35,
					"target":{
						"node":7,
						"path":"scale"
					}
				},
				{
					"sampler":36,
					"target":{
						"node":6,
						"path":"translation"
					}
				},
				{
					"sampler":37,
					"target":{
						"node":6,
						"path":"rotation"
					}
				},
				{
					"sampler":38,
					"target":{
						"node":6,
						"path":"scale"
					}
				},
				{
					"sampler":39,
					"target":{
						"node":13,
						"path":"translation"
					}
				},
				{
					"sampler":40,
					"target":{
						"node":13,
						"path":"rotation"
					}
				},
				{
					"sampler":41,
					"target":{
						"node":13,
						"path":"scale"
					}
				},
				{
					"sampler":42,
					"target":{
						"node":12,
						"path":"translation"
					}
				},
				{
					"sampler":43,
					"target":{
						"node":12,
						"path":"rotation"
					}
				},
				{
					"sampler":44,
					"target":{
						"node":12,
						"path":"scale"
					}
				},
				{
					"sampler":45,
					"target":{
						"node":11,
						"path":"translation"
					}
				},
				{
					"sampler":46,
					"target":{
						"node":11,
						"path":"rotation"
					}
				},
				{
					"sampler":47,
					"target":{
						"node":11,
						"path":"scale"
					}
				},
				{
					"sampler":48,
					"target":{
						"node":17,
						"path":"translation"
					}
				},
				{
					"sampler":49,
					"target":{
						"node":17,
						"path":"rotation"
					}
				},
				{
					"sampler":50,
					"target":{
						"node":17,
						"path":"scale"
					}
				},
				{
					"sampler":51,
					"target":{
						"node":16,
						"path":"translation"
					}
				},
				{
					"sampler":52,
					"target":{
						"node":16,
						"path":"rotation"
					}
				},
				{
					"sampler":53,
					"target":{
						"node":16,
						"path":"scale"
					}
				},
				{
					"sampler":54,
					"target":{
						"node":15,
						"path":"translation"
					}
				},
				{
					"sampler":55,
					"target":{
						"node":15,
						"path":"rotation"
					}
				},
				{
					"sampler":56,
					"target":{
						"node":15,
						"path":"scale"
					}
				},
				{
					"sampler":57,
					"target":{
						"node":14,
						"path":"translation"
					}
				},
				{
					"sampler":58,
					"target":{
						"node":14,
						"path":"rotation"
					}
				},
				{
					"sampler":59,
					"target":{
						"node":14,
						"path":"scale"
					}
				},
				{
					"sampler":60,
					"target":{
						"node":21,
						"path":"translation"
					}
				},
				{
					"sampler":61,
					"target":{
						"node":21,
						"path":"rotation"
					}
				},
				{
					"sampler":62,
					"target":{
						"node":21,
						"path":"scale"
					}
				},
				{
					"sampler":63,
					"target":{
						"node":20,
						"path":"translation"
					}
				},
				{
					"sampler":64,
					"target":{
						"node":20,
						"path":"rotation"
					}
				},
				{
					"sampler":65,
					"target":{
						"node":20,
						"path":"scale"
					}
				},
				{
					"sampler":66,
					"target":{
						"node":19,
						"path":"translation"
					}
				},
				{
					"sampler":67,
					"target":{
						"node":19,
						"path":"rotation"
					}
				},
				{
					"sampler":68,
					"target":{
						"node":19,
						"path":"scale"
					}
				},
				{
					"sampler":69,
					"target":{
						"node":18,
						"path":"translation"
					}
				},
				{
					"sampler":70,
					"target":{
						"node":18,
						"path":"rotation"
					}
				},
				{
					"sampler":71,
					"target":{
						"node":18,
						"path":"scale"
					}
				}
			],
			"name":"Survey",
			"samplers":[
				{
					"input":85,
					"interpolation":"STEP",
					"output":86
				},
				{
					"input":85,
					"interpolation":"STEP",
					"output":87
				},
				{
					"input":85,
					"interpolation":"STEP",
					"output":88
				},
				{
					"input":85,
					"interpolation":"STEP",
					"output":89
				},
				{
					"input":85,
					"interpolation":"STEP",
					"output":90
				},
				{
					"input":85,
					"interpolation":"STEP",
					"output":91
				},
				{
					"input":92,
					"interpolation":"LINEAR",
					"output":93
				},
				{
					"input":85,
					"interpolation":"STEP",
					"output":94
				},
				{
					"input":85,
					"interpolation":"STEP",
					"output":95
				},
				{
					"input":85,
					"interpolation":"STEP",
					"output":96
				},
				{
					"input":85,
					"interpolation":"STEP",
					"output":97
				},
				{
					"input":85,
					"interpolation":"STEP",
					"output":98
				},
				{
					"input":85,
					"interpolation":"STEP",
					"output":99
				},
				{
					"input":92,
					"interpolation":"LINEAR",
					"output":100
				},
				{
					"input":85,
					"interpolation":"STEP",
					"output":101
				},
				{
					"input":85,
					"interpolation":"STEP",
					"output":102
				},
				{
					"input":92,
					"interpolation":"LINEAR",
					"output":103
				},
				{
					"input":85,
					"interpolation":"STEP",
					"output":104
				},
				{
					"input":85,
					"interpolation":"STEP",
					"output":105
				},
				{
					"input":92,
					"interpolation":"LINEAR",
					"output":106
				},
				{
					"input":85,
					"interpolation":"STEP",
					"output":107
				},
				{
					"input":85,
					"interpolation":"STEP",
					"output":108
				},
				{
					"input":92,
					"interpolation":"LINEAR",
					"output":109
				},
				{
					"input":85,
					"interpolation":"STEP",
					"output":110
				},
				{
					"input":85,
					"interpolation":"STEP",
					"output":111
				},
				{
					"input":92,
					"interpolation":"LINEAR",
					"output":112
				},
				{
					"input":85,
					"interpolation":"STEP",
					"output":113
				},
				{
					"input":85,
					"interpolation":"STEP",
					"output":114
				},
				{
					"input":92,
					"interpolation":"LINEAR",
					"output":115
				},
				{
					"input":85,
					"interpolation":"STEP",
					"output":116
				},
				{
					"input":85,
					"interpolation":"STEP",
					"output":117
				},
				{
					"input":92,
					"interpolation":"LINEAR",
					"output":118
				},
				{
					"input":85,
					"interpolation":"STEP",
					"output":119
				},
				{
					"input":85,
					"interpolation":"STEP",
					"output":120
				},
				{
					"input":92,
					"interpolation":"LINEAR",
					"output":121
				},
				{
					"input":85,
					"interpolation":"STEP",
					"output":122
				},
				{
					"input":85,
					"interpolation":"STEP",
					"output":123
				},
				{
					"input":92,
					"interpolation":"LINEAR",
					"output":124
				},
				{
					"input":85,
					"interpolation":"STEP",
					"output":125
				},
				{
					"input":85,
					"interpolation":"STEP",
					"output":126
				},
				{
					"input":92,
					"interpolation":"LINEAR",
					"output":127
				},
				{
					"input":85,
					"interpolation":"STEP",
					"output":128
				},
				{
					"input":85,
					"interpolation":"STEP",
					"output":129
				},
				{
					"input":92,
					"interpolation":"LINEAR",
					"output":130
				},
				{
					"input":85,
					"interpolation":"STEP",
					"output":131
				},
				{
					"input":85,
					"interpolation":"STEP",
					"output":132
				},
				{
					"input":92,
					"interpolation":"LINEAR",
					"output":133
				},
				{
					"input":85,
					"interpolation":"STEP",
					"output":134
				},
				{
					"input":85,
					"interpolation":"STEP",
					"output":135
				},
				{
					"input":92,
					"interpolation":"LINEAR",
					"output":136
				},
				{
					"input":85,
					"interpolation":"STEP",
					"output":137
				},
				{
					"input":85,
					"interpolation":"STEP",
					"output":138
				},
				{
					"input":92,
					"interpolation":"LINEAR",
					"output":139
				},
				{
					"input":85,
					"interpolation":"STEP",
					"output":140
				},
				{
					"input":85,
					"interpolation":"STEP",
					"output":141
				},
				{
					"input":92,
					"interpolation":"LINEAR",
					"output":142
				},
				{
					"input":85,
					"interpolation":"STEP",
					"output":143
				},
				{
					"input":85,
					"interpolation":"STEP",
					"output":144
				},
				{
					"input":85,
					"interpolation":"STEP",
					"output":145
				},
				{
					"input":85,
					"interpolation":"STEP",
					"output":146
				},
				{
					"input":85,
					"interpolation":"STEP",
					"output":147
				},
				{
					"input":92,
					"interpolation":"LINEAR",
					"output":148
				},
				{
					"input":85,
					"interpolation":"STEP",
					"output":149
				},
				{
					"input":85,
					"interpolation":"STEP",
					"output":150
				},
				{
					"input":92,
					"interpolation":"LINEAR",
					"output":151
				},
				{
					"input":85,
					"interpolation":"STEP",
					"output":152
				},
				{
					"input":85,
					"interpolation":"STEP",
					"output":153
				},
				{
					"input":92,
					"interpolation":"LINEAR",
					"output":154
				},
				{
					"input":85,
					"interpolation":"STEP",
					"output":155
				},
				{
					"input":85,
					"interpolation":"STEP",
					"output":156
				},
				{
					"input":85,
					"interpolation":"STEP",
					"output":157
				},
				{
					"input":85,
					"interpolation":"STEP",
					"output":158
				}
			]
		},
		{
			"channels":[
				{
					"sampler":0,
					"target":{
						"node":24,
						"path":"translation"
					}
				},
				{
					"sampler":1,
					"target":{
						"node":24,
						"path":"rotation"
					}
				},
				{
					"sampler":2,
					"target":{
						"node":24,
						"path":"scale"
					}
				},
				{
					"sampler":3,
					"target":{
						"node":23,
						"path":"translation"
					}
				},
				{
					"sampler":4,
					"target":{
						"node":23,
						"path":"rotation"
					}
				},
				{
					"sampler":5,
					"target":{
						"node":23,
						"path":"scale"
					}
				},
				{
					"sampler":6,
					"target":{
						"node":22,
						"path":"translation"
					}
				},
				{
					"sampler":7,
					"target":{
						"node":22,
						"path":"rotation"
					}
				},
				{
					"sampler":8,
					"target":{
						"node":22,
						"path":"scale"
					}
				},
				{
					"sampler":9,
					"target":{
						"node":10,
						"path":"translation"
					}
				},
				{
					"sampler":10,
					"target":{
						"node":10,
						"path":"rotation"
					}
				},
				{
					"sampler":11,
					"target":{
						"node":10,
						"path":"scale"
					}
				},
				{
					"sampler":12,
					"target":{
						"node":9,
						"path":"translation"
					}
				},
				{
					"sampler":13,
					"target":{
						"node":9,
						"path":"rotation"
					}
				},
				{
					"sampler":14,
					"target":{
						"node":9,
						"path":"scale"
					}
				},
				{
					"sampler":15,
					"target":{
						"node":2,
						"path":"translation"
					}
				},
				{
					"sampler":16,
					"target":{
						"node":2,
						"path":"rotation"
					}
				},
				{
					"sampler":17,
					"target":{
						"node":2,
						"path":"scale"
					}
				},
				{
					"sampler":18,
					"target":{
						"node":1,
						"path":"translation"
					}
				},
				{
					"sampler":19,
					"target":{
						"node":1,
						"path":"rotation"
					}
				},
				{
					"sampler":20,
					"target":{
						"node":1,
						"path":"scale"
					}
				},
				{
					"sampler":21,
					"target":{
						"node":5,
						"path":"translation"
					}
				},
				{
					"sampler":22,
					"target":{
						"node":5,
						"path":"rotation"
					}
				},
				{
					"sampler":23,
					"target":{
						"node":5,
						"path":"scale"
					}
				},
				{
					"sampler":24,
					"target":{
						"node":4,
						"path":"translation"
					}
				},
				{
					"sampler":25,
					"target":{
						"node":4,
						"path":"rotation"
					}
				},
				{
					"sampler":26,
					"target":{
						"node":4,
						"path":"scale"
					}
				},
				{
					"sampler":27,
					"target":{
						"node":3,
						"path":"translation"
					}
				},
				{
					"sampler":28,
					"target":{
						"node":3,
						"path":"rotation"
					}
				},
				{
					"sampler":29,
					"target":{
						"node":3,
						"path":"scale"
					}
				},
				{
					"sampler":30,
					"target":{
						"node":8,
						"path":"translation"
					}
				},
				{
					"sampler":31,
					"target":{
						"node":8,
						"path":"rotation"
					}
				},
				{
					"sampler":32,
					"target":{
						"node":8,
						"path":"scale"
					}
				},
				{
					"sampler":33,
					"target":{
						"node":7,
						"path":"translation"
					}
				},
				{
					"sampler":34,
					"target":{
						"node":7,
						"path":"rotation"
					}
				},
				{
					"sampler":35,
					"target":{
						"node":7,
						"path":"scale"
					}
				},
				{
					"sampler":36,
					"target":{
						"node":6,
						"path":"translation"
					}
				},
				{
					"sampler":37,
					"target":{
						"node":6,
						"path":"rotation"
					}
				},
				{
					"sampler":38,
					"target":{
						"node":6,
						"path":"scale"
					}
				},
				{
					"sampler":39,
					"target":{
						"node":13,
						"path":"translation"
					}
				},
				{
					"sampler":40,
					"target":{
						"node":13,
						"path":"rotation"
					}
				},
				{
					"sampler":41,
					"target":{
						"node":13,
						"path":"scale"
					}
				},
				{
					"sampler":42,
					"target":{
						"node":12,
						"path":"translation"
					}
				},
				{
					"sampler":43,
					"target":{
						"node":12,
						"path":"rotation"
					}
				},
				{
					"sampler":44,
					"target":{
						"node":12,
						"path":"scale"
					}
				},
				{
					"sampler":45,
					"target":{
						"node":11,
						"path":"translation"
					}
				},
				{
					"sampler":46,
					"target":{
						"node":11,
						"path":"rotation"
					}
				},
				{
					"sampler":47,
					"target":{
						"node":11,
						"path":"scale"
					}
				},
				{
					"sampler":48,
					"target":{
						"node":17,
						"path":"translation"
					}
				},
				{
					"sampler":49,
					"target":{
						"node":17,
						"path":"rotation"
					}
				},
				{
					"sampler":50,
					"target":{
						"node":17,
						"path":"scale"
					}
				},
				{
					"sampler":51,
					"target":{
						"node":16,
						"path":"translation"
					}
				},
				{
					"sampler":52,
					"target":{
						"node":16,
						"path":"rotation"
					}
				},
				{
					"sampler":53,
					"target":{
						"node":16,
						"path":"scale"
					}
				},
				{
					"sampler":54,
					"target":{
						"node":15,
						"path":"translation"
					}
				},
				{
					"sampler":55,
					"target":{
						"node":15,
						"path":"rotation"
					}
				},
				{
					"sampler":56,
					"target":{
						"node":15,
						"path":"scale"
					}
				},
				{
					"sampler":57,
					"target":{
						"node":14,
						"path":"translation"
					}
				},
				{
					"sampler":58,
					"target":{
						"node":14,
						"path":"rotation"
					}
				},
				{
					"sampler":59,
					"target":{
						"node":14,
						"path":"scale"
					}
				},
				{
					"sampler":60,
					"target":{
						"node":21,
						"path":"translation"
					}
				},
				{
					"sampler":61,
					"target":{
						"node":21,
						"path":"rotation"
					}
				},
				{
					"sampler":62,
					"target":{
						"node":21,
						"path":"scale"
					}
				},
				{
					"sampler":63,
					"target":{
						"node":20,
						"path":"translation"
					}
				},
				{
					"sampler":64,
					"target":{
						"node":20,
						"path":"rotation"
					}
				},
				{
					"sampler":65,
					"target":{
						"node":20,
						"path":"scale"
					}
				},
				{
					"sampler":66,
					"target":{
						"node":19,
						"path":"translation"
					}
				},
				{
					"sampler":67,
					"target":{
						"node":19,
						"path":"rotation"
					}
				},
				{
					"sampler":68,
					"target":{
						"node":19,
						"path":"scale"
					}
				},
				{
					"sampler":69,
					"target":{
						"node":18,
						"path":"translation"
					}
				},
				{
					"sampler":70,
					"target":{
						"node":18,
						"path":"rotation"
					}
				},
				{
					"sampler":71,
					"target":{
						"node":18,
						"path":"scale"
					}
				}
			],
			"name":"Walk",
			"samplers":[
				{
					"input":159,
					"interpolation":"STEP",
					"output":160
				},
				{
					"input":159,
					"interpolation":"STEP",
					"output":161
				},
				{
					"input":159,
					"interpolation":"STEP",
					"output":162
				},
				{
					"input":159,
					"interpolation":"STEP",
					"output":163
				},
				{
					"input":159,
					"interpolation":"STEP",
					"output":164
				},
				{
					"input":159,
					"interpolation":"STEP",
					"output":165
				},
				{
					"input":166,
					"interpolation":"LINEAR",
					"output":167
				},
				{
					"input":166,
					"interpolation":"LINEAR",
					"output":168
				},
				{
					"input":159,
					"interpolation":"STEP",
					"output":169
				},
				{
					"input":159,
					"interpolation":"STEP",
					"output":170
				},
				{
					"input":166,
					"interpolation":"LINEAR",
					"output":171
				},
				{
					"input":159,
					"interpolation":"STEP",
					"output":172
				},
				{
					"input":159,
					"interpolation":"STEP",
					"output":173
				},
				{
					"input":166,
					"interpolation":"LINEAR",
					"output":174
				},
				{
					"input":159,
					"interpolation":"STEP",
					"output":175
				},
				{
					"input":159,
					"interpolation":"STEP",
					"output":176
				},
				{
					"input":166,
					"interpolation":"LINEAR",
					"output":177
				},
				{
					"input":159,
					"interpolation":"STEP",
					"output":178
				},
				{
					"input":159,
					"interpolation":"STEP",
					"output":179
				},
				{
					"input":166,
					"interpolation":"LINEAR",
					"output":180
				},
				{
					"input":159,
					"interpolation":"STEP",
					"output":181
				},
				{
					"input":159,
					"interpolation":"STEP",
					"output":182
				},
				{
					"input":166,
					"interpolation":"LINEAR",
					"output":183
				},
				{
					"input":159,
					"interpolation":"STEP",
					"output":184
				},
				{
					"input":159,
					"interpolation":"STEP",
					"output":185
				},
				{
					"input":166,
					"interpolation":"LINEAR",
					"output":186
				},
				{
					"input":159,
					"interpolation":"STEP",
					"output":187
				},
				{
					"input":159,
					"interpolation":"STEP",
					"output":188
				},
				{
					"input":166,
					"interpolation":"LINEAR",
					"output":189
				},
				{
					"input":159,
					"interpolation":"STEP",
					"output":190
				},
				{
					"input":159,
					"interpolation":"STEP",
					"output":191
				},
				{
					"input":166,
					"interpolation":"LINEAR",
					"output":192
				},
				{
					"input":159,
					"interpolation":"STEP",
					"output":193
				},
				{
					"input":159,
					"interpolation":"STEP",
					"output":194
				},
				{
					"input":166,
					"interpolation":"LINEAR",
					"output":195
				},
				{
					"input":159,
					"interpolation":"STEP",
					"output":196
				},
				{
					"input":159,
					"interpolation":"STEP",
					"output":197
				},
				{
					"input":166,
					"interpolation":"LINEAR",
					"output":198
				},
				{
					"input":159,
					"interpolation":"STEP",
					"output":199
				},
				{
					"input":159,
					"interpolation":"STEP",
					"output":200
				},
				{
					"input":166,
					"interpolation":"LINEAR",
					"output":201
				},
				{
					"input":159,
					"interpolation":"STEP",
					"output":202
				},
				{
					"input":159,
					"interpolation":"STEP",
					"output":203
				},
				{
					"input":166,
					"interpolation":"LINEAR",
					"output":204
				},
				{
					"input":159,
					"interpolation":"STEP",
					"output":205
				},
				{
					"input":159,
					"interpolation":"STEP",
					"output":206
				},
				{
					"input":166,
					"interpolation":"LINEAR",
					"output":207
				},
				{
					"input":159,
					"interpolation":"STEP",
					"output":208
				},
				{
					"input":159,
					"interpolation":"STEP",
					"output":209
				},
				{
					"input":166,
					"interpolation":"LINEAR",
					"output":210
				},
				{
					"input":159,
					"interpolation":"STEP",
					"output":211
				},
				{
					"input":159,
					"interpolation":"STEP",
					"output":212
				},
				{
					"input":166,
					"interpolation":"LINEAR",
					"output":213
				},
				{
					"input":159,
					"interpolation":"STEP",
					"output":214
				},
				{
					"input":159,
					"interpolation":"STEP",
					"output":215
				},
				{
					"input":166,
					"interpolation":"LINEAR",
					"output":216
				},
				{
					"input":159,
					"interpolation":"STEP",
					"output":217
				},
				{
					"input":159,
					"interpolation":"STEP",
					"output":218
				},
				{
					"input":159,
					"interpolation":"STEP",
					"output":219
				},
				{
					"input":159,
					"interpolation":"STEP",
					"output":220
				},
				{
					"input":159,
					"interpolation":"STEP",
					"output":221
				},
				{
					"input":166,
					"interpolation":"LINEAR",
					"output":222
				},
				{
					"input":159,
					"interpolation":"STEP",
					"output":223
				},
				{
					"input":159,
					"interpolation":"STEP",
					"output":224
				},
				{
					"input":166,
					"interpolation":"LINEAR",
					"output":225
				},
				{
					"input":159,
					"interpolation":"STEP",
					"output":226
				},
				{
					"input":159,
					"interpolation":"STEP",
					"output":227
				},
				{
					"input":166,
					"interpolation":"LINEAR",
					"output":228
				},
				{
					"input":159,
					"interpolation":"STEP",
					"output":229
				},
				{
					"input":159,
					"interpolation":"STEP",
					"output":230
				},
				{
					"input":159,
					"interpolation":"STEP",
					"output":231
				},
				{
					"input":159,
					"interpolation":"STEP",
					"output":232
				}
			]
		}
	],
	"materials":[
		{
			"name":"Material_0",
			"normalTexture":{
				"index":0
			},
			"occlusionTexture":{
				"index":1
			},
			"pbrMetallicRoughness":{
				"baseColorTexture":{
					"index":2
				},
				"metallicFactor":0,
				"metallicRoughnessTexture":{
					"index":1
				}
			}
		},
		{
			"name":"fox_material",
			"pbrMetallicRoughness":{
				"baseColorTexture":{
					"index":3
				},
				"metallicFactor":0,
				"roughnessFactor":0.5799999833106995
			}
		}
	],
	"meshes":[
		{
			"name":"Mesh_0",
			"primitives":[
				{
					"attributes":{
						"POSITION":0,
						"NORMAL":1,
						"TEXCOORD_0":2
					},
					"indices":3,
					"material":0
				}
			]
		},
		{
			"name":"fox1",
			"primitives":[
				{
					"attributes":{
						"POSITION":4,
						"NORMAL":5,
						"TEXCOORD_0":6,
						"JOINTS_0":7,
						"WEIGHTS_0":8
					},
					"indices":9,
					"material":1
				}
			]
		}
	],
	"textures":[
		{
			"sampler":0,
			"source":0
		},
		{
			"sampler":0,
			"source":1
		},
		{
			"sampler":0,
			"source":2
		},
		{
			"sampler":0,
			"source":3
		}
	],
	"images":[
		{
			"mimeType":"image/jpeg",
			"name":"a4e048d2691752743db389b1c26aa0fd",
			"uri":"a4e048d2691752743db389b1c26aa0fd.jpg"
		},
		{
			"mimeType":"image/png",
			"name":"f0598e3cd0d95c2eb415a138a28ce8ad-a7d75f26a894c8c096c07bcceb0b268b",
			"uri":"f0598e3cd0d95c2eb415a138a28ce8ad-a7d75f26a894c8c096c07bcceb0b268b.png"
		},
		{
			"mimeType":"image/jpeg",
			"name":"0427b8b6c596c3304c5fac63793b3b5a",
			"uri":"0427b8b6c596c3304c5fac63793b3b5a.jpg"
		},
		{
			"mimeType":"image/png",
			"name":"Image_0",
			"uri":"Image_0.png"
		}
	],
	"skins":[
		{
			"inverseBindMatrices":10,
			"joints":[
				24,
				23,
				22,
				10,
				9,
				2,
				1,
				5,
				4,
				3,
				8,
				7,
				6,
				13,
				12,
				11,
				17,
				16,
				15,
				14,
				21,
				20,
				19,
				18
			],
			"name":"root"
		}
	],
	"accessors":[
		{
			"bufferView":0,
			"componentType":5126,
			"count":299853,
			"max":[
				0.35185521841049194,
				1.213523268699646,
				0.2958058714866638
			],
			"min":[
				-0.35185521841049194,
				1.3401404430624098e-08,
				-0.2958058714866638
			],
			"type":"VEC3"
		},
		{
			"bufferView":1,
			"componentType":5126,
			"count":299853,
			"type":"VEC3"
		},
		{
			"bufferView":2,
			"componentType":5126,
			"count":299853,
			"type":"VEC2"
		},
		{
			"bufferView":3,
			"componentType":5125,
			"count":299997,
			"type":"SCALAR"
		},
		{
			"bufferView":4,
			"componentType":5126,
			"count":1728,
			"max":[
				12.592718124389648,
				78.90717315673828,
				66.62486267089844
			],
			"min":[
				-12.592718124389648,
				-0.12174424529075623,
				-88.09500885009766
			],
			"type":"VEC3"
		},
		{
			"bufferView":5,
			"componentType":5126,
			"count":1728,
			"type":"VEC3"
		},
		{
			"bufferView":6,
			"componentType":5126,
			"count":1728,
			"type":"VEC2"
		},
		{
			"bufferView":7,
			"componentType":5121,
			"count":1728,
			"type":"VEC4"
		},
		{
			"bufferView":8,
			"componentType":5126,
			"count":1728,
			"type":"VEC4"
		},
		{
			"bufferView":9,
			"componentType":5123,
			"count":1728,
			"type":"SCALAR"
		},
		{
			"bufferView":10,
			"componentType":5126,
			"count":24,
			"type":"MAT4"
		},
		{
			"bufferView":11,
			"componentType":5126,
			"count":2,
			"max":[
				1.125
			],
			"min":[
				0
			],
			"type":"SCALAR"
		},
		{
			"bufferView":12,
			"componentType":5126,
			"count":2,
			"type":"VEC3"
		},
		{
			"bufferView":13,
			"componentType":5126,
			"count":2,
			"type":"VEC4"
		},
		{
			"bufferView":14,
			"componentType":5126,
			"count":2,
			"type":"VEC3"
		},
		{
			"bufferView":15,
			"componentType":5126,
			"count":2,
			"type":"VEC3"
		},
		{
			"bufferView":16,
			"componentType":5126,
			"count":2,
			"type":"VEC4"
		},
		{
			"bufferView":17,
			"componentType":5126,
			"count":2,
			"type":"VEC3"
		},
		{
			"bufferView":18,
			"componentType":5126,
			"count":28,
			"max":[
				1.125
			],
			"min":[
				0
			],
			"type":"SCALAR"
		},
		{
			"bufferView":19,
			"componentType":5126,
			"count":28,
			"type":"VEC3"
		},
		{
			"bufferView":20,
			"componentType":5126,
			"count":28,
			"type":"VEC4"
		},
		{
			"bufferView":21,
			"componentType":5126,
			"count":2,
			"type":"VEC3"
		},
		{
			"bufferView":22,
			"componentType":5126,
			"count":2,
			"type":"VEC3"
		},
		{
			"bufferView":23,
			"componentType":5126,
			"count":28,
			"type":"VEC4"
		},
		{
			"bufferView":24,
			"componentType":5126,
			"count":2,
			"type":"VEC3"
		},
		{
			"bufferView":25,
			"componentType":5126,
			"count":2,
			"type":"VEC3"
		},
		{
			"bufferView":26,
			"componentType":5126,
			"count":28,
			"type":"VEC4"
		},
		{
			"bufferView":27,
			"componentType":5126,
			"count":2,
			"type":"VEC3"
		},
		{
			"bufferView":28,
			"componentType":5126,
			"count":2,
			"type":"VEC3"
		},
		{
			"bufferView":29,
			"componentType":5126,
			"count":28,
			"type":"VEC4"
		},
		{
			"bufferView":30,
			"componentType":5126,
			"count":2,
			"type":"VEC3"
		},
		{
			"bufferView":31,
			"componentType":5126,
			"count":2,
			"type":"VEC3"
		},
		{
			"bufferView":32,
			"componentType":5126,
			"count":28,
			"type":"VEC4"
		},
		{
			"bufferView":33,
			"componentType":5126,
			"count":2,
			"type":"VEC3"
		},
		{
			"bufferView":34,
			"componentType":5126,
			"count":2,
			"type":"VEC3"
		},
		{
			"bufferView":35,
			"componentType":5126,
			"count":28,
			"type":"VEC4"
		},
		{
			"bufferView":36,
			"componentType":5126,
			"count":2,
			"type":"VEC3"
		},
		{
			"bufferView":37,
			"componentType":5126,
			"count":2,
			"type":"VEC3"
		},
		{
			"bufferView":38,
			"componentType":5126,
			"count":28,
			"type":"VEC4"
		},
		{
			"bufferView":39,
			"componentType":5126,
			"count":2,
			"type":"VEC3"
		},
		{
			"bufferView":40,
			"componentType":5126,
			"count":2,
			"type":"VEC3"
		},
		{
			"bufferView":41,
			"componentType":5126,
			"count":28,
			"type":"VEC4"
		},
		{
			"bufferView":42,
			"componentType":5126,
			"count":2,
			"type":"VEC3"
		},
		{
			"bufferView":43,
			"componentType":5126,
			"count":2,
			"type":"VEC3"
		},
		{
			"bufferView":44,
			"componentType":5126,
			"count":28,
			"type":"VEC4"
		},
		{
			"bufferView":45,
			"componentType":5126,
			"count":2,
			"type":"VEC3"
		},
		{
			"bufferView":46,
			"componentType":5126,
			"count":2,
			"type":"VEC3"
		},
		{
			"bufferView":47,
			"componentType":5126,
			"count":28,
			"type":"VEC4"
		},
		{
			"bufferView":48,
			"componentType":5126,
			"count":2,
			"type":"VEC3"
		},
		{
			"bufferView":49,
			"componentType":5126,
			"count":2,
			"type":"VEC3"
		},
		{
			"bufferView":50,
			"componentType":5126,
			"count":28,
			"type":"VEC4"
		},
		{
			"bufferView":51,
			"componentType":5126,
			"count":2,
			"type":"VEC3"
		},
		{
			"bufferView":52,
			"componentType":5126,
			"count":2,
			"type":"VEC3"
		},
		{
			"bufferView":53,
			"componentType":5126,
			"count":28,
			"type":"VEC4"
		},
		{
			"bufferView":54,
			"componentType":5126,
			"count":2,
			"type":"VEC3"
		},
		{
			"bufferView":55,
			"componentType":5126,
			"count":2,
			"type":"VEC3"
		},
		{
			"bufferView":56,
			"componentType":5126,
			"count":28,
			"type":"VEC4"
		},
		{
			"bufferView":57,
			"componentType":5126,
			"count":2,
			"type":"VEC3"
		},
		{
			"bufferView":58,
			"componentType":5126,
			"count":2,
			"type":"VEC3"
		},
		{
			"bufferView":59,
			"componentType":5126,
			"count":28,
			"type":"VEC4"
		},
		{
			"bufferView":60,
			"componentType":5126,
			"count":2,
			"type":"VEC3"
		},
		{
			"bufferView":61,
			"componentType":5126,
			"count":2,
			"type":"VEC3"
		},
		{
			"bufferView":62,
			"componentType":5126,
			"count":28,
			"type":"VEC4"
		},
		{
			"bufferView":63,
			"componentType":5126,
			"count":2,
			"type":"VEC3"
		},
		{
			"bufferView":64,
			"componentType":5126,
			"count":2,
			"type":"VEC3"
		},
		{
			"bufferView":65,
			"componentType":5126,
			"count":28,
			"type":"VEC4"
		},
		{
			"bufferView":66,
			"componentType":5126,
			"count":2,
			"type":"VEC3"
		},
		{
			"bufferView":67,
			"componentType":5126,
			"count":2,
			"type":"VEC3"
		},
		{
			"bufferView":68,
			"componentType":5126,
			"count":28,
			"type":"VEC4"
		},
		{
			"bufferView":69,
			"componentType":5126,
			"count":2,
			"type":"VEC3"
		},
		{
			"bufferView":70,
			"componentType":5126,
			"count":2,
			"type":"VEC3"
		},
		{
			"bufferView":71,
			"componentType":5126,
			"count":2,
			"type":"VEC4"
		},
		{
			"bufferView":72,
			"componentType":5126,
			"count":2,
			"type":"VEC3"
		},
		{
			"bufferView":73,
			"componentType":5126,
			"count":2,
			"type":"VEC3"
		},
		{
			"bufferView":74,
			"componentType":5126,
			"count":28,
			"type":"VEC4"
		},
		{
			"bufferView":75,
			"componentType":5126,
			"count":2,
			"type":"VEC3"
		},
		{
			"bufferView":76,
			"componentType":5126,
			"count":2,
			"type":"VEC3"
		},
		{
			"bufferView":77,
			"componentType":5126,
			"count":28,
			"type":"VEC4"
		},
		{
			"bufferView":78,
			"componentType":5126,
			"count":2,
			"type":"VEC3"
		},
		{
			"bufferView":79,
			"componentType":5126,
			"count":2,
			"type":"VEC3"
		},
		{
			"bufferView":80,
			"componentType":5126,
			"count":28,
			"type":"VEC4"
		},
		{
			"bufferView":81,
			"componentType":5126,
			"count":2,
			"type":"VEC3"
		},
		{
			"bufferView":82,
			"componentType":5126,
			"count":2,
			"type":"VEC3"
		},
		{
			"bufferView":83,
			"componentType":5126,
			"count":2,
			"type":"VEC4"
		},
		{
			"bufferView":84,
			"componentType":5126,
			"count":2,
			"type":"VEC3"
		},
		{
			"bufferView":85,
			"componentType":5126,
			"count":2,
			"max":[
				3.4166666666666665
			],
			"min":[
				0
			],
			"type":"SCALAR"
		},
		{
			"bufferView":86,
			"componentType":5126,
			"count":2,
			"type":"VEC3"
		},
		{
			"bufferView":87,
			"componentType":5126,
			"count":2,
			"type":"VEC4"
		},
		{
			"bufferView":88,
			"componentType":5126,
			"count":2,
			"type":"VEC3"
		},
		{
			"bufferView":89,
			"componentType":5126,
			"count":2,
			"type":"VEC3"
		},
		{
			"bufferView":90,
			"componentType":5126,
			"count":2,
			"type":"VEC4"
		},
		{
			"bufferView":91,
			"componentType":5126,
			"count":2,
			"type":"VEC3"
		},
		{
			"bufferView":92,
			"componentType":5126,
			"count":83,
			"max":[
				3.4166666666666665
			],
			"min":[
				0
			],
			"type":"SCALAR"
		},
		{
			"bufferView":93,
			"componentType":5126,
			"count":83,
			"type":"VEC3"
		},
		{
			"bufferView":94,
			"componentType":5126,
			"count":2,
			"type":"VEC4"
		},
		{
			"bufferView":95,
			"componentType":5126,
			"count":2,
			"type":"VEC3"
		},
		{
			"bufferView":96,
			"componentType":5126,
			"count":2,
			"type":"VEC3"
		},
		{
			"bufferView":97,
			"componentType":5126,
			"count":2,
			"type":"VEC4"
		},
		{
			"bufferView":98,
			"componentType":5126,
			"count":2,
			"type":"VEC3"
		},
		{
			"bufferView":99,
			"componentType":5126,
			"count":2,
			"type":"VEC3"
		},
		{
			"bufferView":100,
			"componentType":5126,
			"count":83,
			"type":"VEC4"
		},
		{
			"bufferView":101,
			"componentType":5126,
			"count":2,
			"type":"VEC3"
		},
		{
			"bufferView":102,
			"componentType":5126,
			"count":2,
			"type":"VEC3"
		},
		{
			"bufferView":103,
			"componentType":5126,
			"count":83,
			"type":"VEC4"
		},
		{
			"bufferView":104,
			"componentType":5126,
			"count":2,
			"type":"VEC3"
		},
		{
			"bufferView":105,
			"componentType":5126,
			"count":2,
			"type":"VEC3"
		},
		{
			"bufferView":106,
			"componentType":5126,
			"count":83,
			"type":"VEC4"
		},
		{
			"bufferView":107,
			"componentType":5126,
			"count":2,
			"type":"VEC3"
		},
		{
			"bufferView":108,
			"componentType":5126,
			"count":2,
			"type":"VEC3"
		},
		{
			"bufferView":109,
			"componentType":5126,
			"count":83,
			"type":"VEC4"
		},
		{
			"bufferView":110,
			"componentType":5126,
			"count":2,
			"type":"VEC3"
		},
		{
			"bufferView":111,
			"componentType":5126,
			"count":2,
			"type":"VEC3"
		},
		{
			"bufferView":112,
			"componentType":5126,
			"count":83,
			"type":"VEC4"
		},
		{
			"bufferView":113,
			"componentType":5126,
			"count":2,
			"type":"VEC3"
		},
		{
			"bufferView":114,
			"componentType":5126,
			"count":2,
			"type":"VEC3"
		},
		{
			"bufferView":115,
			"componentType":5126,
			"count":83,
			"type":"VEC4"
		},
		{
			"bufferView":116,
			"componentType":5126,
			"count":2,
			"type":"VEC3"
		},
		{
			"bufferView":117,
			"componentType":5126,
			"count":2,
			"type":"VEC3"
		},
		{
			"bufferView":118,
			"componentType":5126,
			"count":83,
			"type":"VEC4"
		},
		{
			"bufferView":119,
			"componentType":5126,
			"count":2,
			"type":"VEC3"
		},
		{
			"bufferView":120,
			"componentType":5126,
			"count":2,
			"type":"VEC3"
		},
		{
			"bufferView":121,
			"componentType":5126,
			"count":83,
			"type":"VEC4"
		},
		{
			"bufferView":122,
			"componentType":5126,
			"count":2,
			"type":"VEC3"
		},
		{
			"bufferView":123,
			"componentType":5126,
			"count":2,
			"type":"VEC3"
		},
		{
			"bufferView":124,
			"componentType":5126,
			"count":83,
			"type":"VEC4"
		},
		{
			"bufferView":125,
			"componentType":5126,
			"count":2,
			"type":"VEC3"
		},
		{
			"bufferView":126,
			"componentType":5126,
			"count":2,
			"type":"VEC3"
		},
		{
			"bufferView":127,
			"componentType":5126,
			"count":83,
			"type":"VEC4"
		},
		{
			"bufferView":128,
			"componentType":5126,
			"count":2,
			"type":"VEC3"
		},
		{
			"bufferView":129,
			"componentType":5126,
			"count":2,
			"type":"VEC3"
		},
		{
			"bufferView":130,
			"componentType":5126,
			"count":83,
			"type":"VEC4"
		},
		{
			"bufferView":131,
			"componentType":5126,
			"count":2,
			"type":"VEC3"
		},
		{
			"bufferView":132,
			"componentType":5126,
			"count":2,
			"type":"VEC3"
		},
		{
			"bufferView":133,
			"componentType":5126,
			"count":83,
			"type":"VEC4"
		},
		{
			"bufferView":134,
			"componentType":5126,
			"count":2,
			"type":"VEC3"
		},
		{
			"bufferView":135,
			"componentType":5126,
			"count":2,
			"type":"VEC3"
		},
		{
			"bufferView":136,
			"componentType":5126,
			"count":83,
			"type":"VEC4"
		},
		{
			"bufferView":137,
			"componentType":5126,
			"count":2,
			"type":"VEC3"
		},
		{
			"bufferView":138,
			"componentType":5126,
			"count":2,
			"type":"VEC3"
		},
		{
			"bufferView":139,
			"componentType":5126,
			"count":83,
			"type":"VEC4"
		},
		{
			"bufferView":140,
			"componentType":5126,
			"count":2,
			"type":"VEC3"
		},
		{
			"bufferView":141,
			"componentType":5126,
			"count":2,
			"type":"VEC3"
		},
		{
			"bufferView":142,
			"componentType":5126,
			"count":83,
			"type":"VEC4"
		},
		{
			"bufferView":143,
			"componentType":5126,
			"count":2,
			"type":"VEC3"
		},
		{
			"bufferView":144,
			"componentType":5126,
			"count":2,
			"type":"VEC3"
		},
		{
			"bufferView":145,
			"componentType":5126,
			"count":2,
			"type":"VEC4"
		},
		{
			"bufferView":146,
			"componentType":5126,
			"count":2,
			"type":"VEC3"
		},
		{
			"bufferView":147,
			"componentType":5126,
			"count":2,
			"type":"VEC3"
		},
		{
			"bufferView":148,
			"componentType":5126,
			"count":83,
			"type":"VEC4"
		},
		{
			"bufferView":149,
			"componentType":5126,
			"count":2,
			"type":"VEC3"
		},
		{
			"bufferView":150,
			"componentType":5126,
			"count":2,
			"type":"VEC3"
		},
		{
			"bufferView":151,
			"componentType":5126,
			"count":83,
			"type":"VEC4"
		},
		{
			"bufferView":152,
			"componentType":5126,
			"count":2,
			"type":"VEC3"
		},
		{
			"bufferView":153,
			"componentType":5126,
			"count":2,
			"type":"VEC3"
		},
		{
			"bufferView":154,
			"componentType":5126,
			"count":83,
			"type":"VEC4"
		},
		{
			"bufferView":155,
			"componentType":5126,
			"count":2,
			"type":"VEC3"
		},
		{
			"bufferView":156,
			"componentType":5126,
			"count":2,
			"type":"VEC3"
		},
		{
			"bufferView":157,
			"componentType":5126,
			"count":2,
			"type":"VEC4"
		},
		{
			"bufferView":158,
			"componentType":5126,
			"count":2,
			"type":"VEC3"
		},
		{
			"bufferView":159,
			"componentType":5126,
			"count":2,
			"max":[
				0.7083333333333334
			],
			"min":[
				0
			],
			"type":"SCALAR"
		},
		{
			"bufferView":160,
			"componentType":5126,
			"count":2,
			"type":"VEC3"
		},
		{
			"bufferView":161,
			"componentType":5126,
			"count":2,
			"type":"VEC4"
		},
		{
			"bufferView":162,
			"componentType":5126,
			"count":2,
			"type":"VEC3"
		},
		{
			"bufferView":163,
			"componentType":5126,
			"count":2,
			"type":"VEC3"
		},
		{
			"bufferView":164,
			"componentType":5126,
			"count":2,
			"type":"VEC4"
		},
		{
			"bufferView":165,
			"componentType":5126,
			"count":2,
			"type":"VEC3"
		},
		{
			"bufferView":166,
			"componentType":5126,
			"count":18,
			"max":[
				0.7083333333333334
			],
			"min":[
				0
			],
			"type":"SCALAR"
		},
		{
			"bufferView":167,
			"componentType":5126,
			"count":18,
			"type":"VEC3"
		},
		{
			"bufferView":168,
			"componentType":5126,
			"count":18,
			"type":"VEC4"
		},
		{
			"bufferView":169,
			"componentType":5126,
			"count":2,
			"type":"VEC3"
		},
		{
			"bufferView":170,
			"componentType":5126,
			"count":2,
			"type":"VEC3"
		},
		{
			"bufferView":171,
			"componentType":5126,
			"count":18,
			"type":"VEC4"
		},
		{
			"bufferView":172,
			"componentType":5126,
			"count":2,
			"type":"VEC3"
		},
		{
			"bufferView":173,
			"componentType":5126,
			"count":2,
			"type":"VEC3"
		},
		{
			"bufferView":174,
			"componentType":5126,
			"count":18,
			"type":"VEC4"
		},
		{
			"bufferView":175,
			"componentType":5126,
			"count":2,
			"type":"VEC3"
		},
		{
			"bufferView":176,
			"componentType":5126,
			"count":2,
			"type":"VEC3"
		},
		{
			"bufferView":177,
			"componentType":5126,
			"count":18,
			"type":"VEC4"
		},
		{
			"bufferView":178,
			"componentType":5126,
			"count":2,
			"type":"VEC3"
		},
		{
			"bufferView":179,
			"componentType":5126,
			"count":2,
			"type":"VEC3"
		},
		{
			"bufferView":180,
			"componentType":5126,
			"count":18,
			"type":"VEC4"
		},
		{
			"bufferView":181,
			"componentType":5126,
			"count":2,
			"type":"VEC3"
		},
		{
			"bufferView":182,
			"componentType":5126,
			"count":2,
			"type":"VEC3"
		},
		{
			"bufferView":183,
			"componentType":5126,
			"count":18,
			"type":"VEC4"
		},
		{
			"bufferView":184,
			"componentType":5126,
			"count":2,
			"type":"VEC3"
		},
		{
			"bufferView":185,
			"componentType":5126,
			"count":2,
			"type":"VEC3"
		},
		{
			"bufferView":186,
			"componentType":5126,
			"count":18,
			"type":"VEC4"
		},
		{
			"bufferView":187,
			"componentType":5126,
			"count":2,
			"type":"VEC3"
		},
		{
			"bufferView":188,
			"componentType":5126,
			"count":2,
			"type":"VEC3"
		},
		{
			"bufferView":189,
			"componentType":5126,
			"count":18,
			"type":"VEC4"
		},
		{
			"bufferView":190,
			"componentType":5126,
			"count":2,
			"type":"VEC3"
		},
		{
			"bufferView":191,
			"componentType":5126,
			"count":2,
			"type":"VEC3"
		},
		{
			"bufferView":192,
			"componentType":5126,
			"count":18,
			"type":"VEC4"
		},
		{
			"bufferView":193,
			"componentType":5126,
			"count":2,
			"type":"VEC3"
		},
		{
			"bufferView":194,
			"componentType":5126,
			"count":2,
			"type":"VEC3"
		},
		{
			"bufferView":195,
			"componentType":5126,
			"count":18,
			"type":"VEC4"
		},
		{
			"bufferView":196,
			"componentType":5126,
			"count":2,
			"type":"VEC3"
		},
		{
			"bufferView":197,
			"componentType":5126,
			"count":2,
			"type":"VEC3"
		},
		{
			"bufferView":198,
			"componentType":5126,
			"count":18,
			"type":"VEC4"
		},
		{
			"bufferView":199,
			"componentType":5126,
			"count":2,
			"type":"VEC3"
		},
		{
			"bufferView":200,
			"componentType":5126,
			"count":2,
			"type":"VEC3"
		},
		{
			"bufferView":201,
			"componentType":5126,
			"count":18,
			"type":"VEC4"
		},
		{
			"bufferView":202,
			"componentType":5126,
			"count":2,
			"type":"VEC3"
		},
		{
			"bufferView":203,
			"componentType":5126,
			"count":2,
			"type":"VEC3"
		},
		{
			"bufferView":204,
			"componentType":5126,
			"count":18,
			"type":"VEC4"
		},
		{
			"bufferView":205,
			"componentType":5126,
			"count":2,
			"type":"VEC3"
		},
		{
			"bufferView":206,
			"componentType":5126,
			"count":2,
			"type":"VEC3"
		},
		{
			"bufferView":207,
			"componentType":5126,
			"count":18,
			"type":"VEC4"
		},
		{
			"bufferView":208,
			"componentType":5126,
			"count":2,
			"type":"VEC3"
		},
		{
			"bufferView":209,
			"componentType":5126,
			"count":2,
			"type":"VEC3"
		},
		{
			"bufferView":210,
			"componentType":5126,
			"count":18,
			"type":"VEC4"
		},
		{
			"bufferView":211,
			"componentType":5126,
			"count":2,
			"type":"VEC3"
		},
		{
			"bufferView":212,
			"componentType":5126,
			"count":2,
			"type":"VEC3"
		},
		{
			"bufferView":213,
			"componentType":5126,
			"count":18,
			"type":"VEC4"
		},
		{
			"bufferView":214,
			"componentType":5126,
			"count":2,
			"type":"VEC3"
		},
		{
			"bufferView":215,
			"componentType":5126,
			"count":2,
			"type":"VEC3"
		},
		{
			"bufferView":216,
			"componentType":5126,
			"count":18,
			"type":"VEC4"
		},
		{
			"bufferView":217,
			"componentType":5126,
			"count":2,
			"type":"VEC3"
		},
		{
			"bufferView":218,
			"componentType":5126,
			"count":2,
			"type":"VEC3"
		},
		{
			"bufferView":219,
			"componentType":5126,
			"count":2,
			"type":"VEC4"
		},
		{
			"bufferView":220,
			"componentType":5126,
			"count":2,
			"type":"VEC3"
		},
		{
			"bufferView":221,
			"componentType":5126,
			"count":2,
			"type":"VEC3"
		},
		{
			"bufferView":222,
			"componentType":5126,
			"count":18,
			"type":"VEC4"
		},
		{
			"bufferView":223,
			"componentType":5126,
			"count":2,
			"type":"VEC3"
		},
		{
			"bufferView":224,
			"componentType":5126,
			"count":2,
			"type":"VEC3"
		},
		{
			"bufferView":225,
			"componentType":5126,
			"count":18,
			"type":"VEC4"
		},
		{
			"bufferView":226,
			"componentType":5126,
			"count":2,
			"type":"VEC3"
		},
		{
			"bufferView":227,
			"componentType":5126,
			"count":2,
			"type":"VEC3"
		},
		{
			"bufferView":228,
			"componentType":5126,
			"count":18,
			"type":"VEC4"
		},
		{
			"bufferView":229,
			"componentType":5126,
			"count":2,
			"type":"VEC3"
		},
		{
			"bufferView":230,
			"componentType":5126,
			"count":2,
			"type":"VEC3"
		},
		{
			"bufferView":231,
			"componentType":5126,
			"count":2,
			"type":"VEC4"
		},
		{
			"bufferView":232,
			"componentType":5126,
			"count":2,
			"type":"VEC3"
		}
	],
	"bufferViews":[
		{
			"buffer":0,
			"byteLength":3598236,
			"byteOffset":0,
			"target":34962
		},
		{
			"buffer":0,
			"byteLength":3598236,
			"byteOffset":3598236,
			"target":34962
		},
		{
			"buffer":0,
			"byteLength":2398824,
			"byteOffset":7196472,
			"target":34962
		},
		{
			"buffer":0,
			"byteLength":1199988,
			"byteOffset":9595296,
			"target":34963
		},
		{
			"buffer":0,
			"byteLength":20736,
			"byteOffset":10795284,
			"target":34962
		},
		{
			"buffer":0,
			"byteLength":20736,
			"byteOffset":10816020,
			"target":34962
		},
		{
			"buffer":0,
			"byteLength":13824,
			"byteOffset":10836756,
			"target":34962
		},
		{
			"buffer":0,
			"byteLength":6912,
			"byteOffset":10850580,
			"target":34962
		},
		{
			"buffer":0,
			"byteLength":27648,
			"byteOffset":10857492,
			"target":34962
		},
		{
			"buffer":0,
			"byteLength":3456,
			"byteOffset":10885140,
			"target":34963
		},
		{
			"buffer":0,
			"byteLength":1536,
			"byteOffset":10888596
		},
		{
			"buffer":0,
			"byteLength":8,
			"byteOffset":10890132
		},
		{
			"buffer":0,
			"byteLength":24,
			"byteOffset":10890140
		},
		{
			"buffer":0,
			"byteLength":32,
			"byteOffset":10890164
		},
		{
			"buffer":0,
			"byteLength":24,
			"byteOffset":10890196
		},
		{
			"buffer":0,
			"byteLength":24,
			"byteOffset":10890220
		},
		{
			"buffer":0,
			"byteLength":32,
			"byteOffset":10890244
		},
		{
			"buffer":0,
			"byteLength":24,
			"byteOffset":10890276
		},
		{
			"buffer":0,
			"byteLength":112,
			"byteOffset":10890300
		},
		{
			"buffer":0,
			"byteLength":336,
			"byteOffset":10890412
		},
		{
			"buffer":0,
			"byteLength":448,
			"byteOffset":10890748
		},
		{
			"buffer":0,
			"byteLength":24,
			"byteOffset":10891196
		},
		{
			"buffer":0,
			"byteLength":24,
			"byteOffset":10891220
		},
		{
			"buffer":0,
			"byteLength":448,
			"byteOffset":10891244
		},
		{
			"buffer":0,
			"byteLength":24,
			"byteOffset":10891692
		},
		{
			"buffer":0,
			"byteLength":24,
			"byteOffset":10891716
		},
		{
			"buffer":0,
			"byteLength":448,
			"byteOffset":10891740
		},
		{
			"buffer":0,
			"byteLength":24,
			"byteOffset":10892188
		},
		{
			"buffer":0,
			"byteLength":24,
			"byteOffset":10892212
		},
		{
			"buffer":0,
			"byteLength":448,
			"byteOffset":10892236
		},
		{
			"buffer":0,
			"byteLength":24,
			"byteOffset":10892684
		},
		{
			"buffer":0,
			"byteLength":24,
			"byteOffset":10892708
		},
		{
			"buffer":0,
			"byteLength":448,
			"byteOffset":10892732
		},
		{
			"buffer":0,
			"byteLength":24,
			"byteOffset":10893180
		},
		{
			"buffer":0,
			"byteLength":24,
			"byteOffset":10893204
		},
		{
			"buffer":0,
			"byteLength":448,
			"byteOffset":10893228
		},
		{
			"buffer":0,
			"byteLength":24,
			"byteOffset":10893676
		},
		{
			"buffer":0,
			"byteLength":24,
			"byteOffset":10893700
		},
		{
			"buffer":0,
			"byteLength":448,
			"byteOffset":10893724
		},
		{
			"buffer":0,
			"byteLength":24,
			"byteOffset":10894172
		},
		{
			"buffer":0,
			"byteLength":24,
			"byteOffset":10894196
		},
		{
			"buffer":0,
			"byteLength":448,
			"byteOffset":10894220
		},
		{
			"buffer":0,
			"byteLength":24,
			"byteOffset":10894668
		},
		{
			"buffer":0,
			"byteLength":24,
			"byteOffset":10894692
		},
		{
			"buffer":0,
			"byteLength":448,
			"byteOffset":10894716
		},
		{
			"buffer":0,
			"byteLength":24,
			"byteOffset":10895164
		},
		{
			"buffer":0,
			"byteLength":24,
			"byteOffset":10895188
		},
		{
			"buffer":0,
			"byteLength":448,
			"byteOffset":10895212
		},
		{
			"buffer":0,
			"byteLength":24,
			"byteOffset":10895660
		},
		{
			"buffer":0,
			"byteLength":24,
			"byteOffset":10895684
		},
		{
			"buffer":0,
			"byteLength":448,
			"byteOffset":10895708
		},
		{
			"buffer":0,
			"byteLength":24,
			"byteOffset":10896156
		},
		{
			"buffer":0,
			"byteLength":24,
			"byteOffset":10896180
		},
		{
			"buffer":0,
			"byteLength":448,
			"byteOffset":10896204
		},
		{
			"buffer":0,
			"byteLength":24,
			"byteOffset":10896652
		},
		{
			"buffer":0,
			"byteLength":24,
			"byteOffset":10896676
		},
		{
			"buffer":0,
			"byteLength":448,
			"byteOffset":10896700
		},
		{
			"buffer":0,
			"byteLength":24,
			"byteOffset":10897148
		},
		{
			"buffer":0,
			"byteLength":24,
			"byteOffset":10897172
		},
		{
			"buffer":0,
			"byteLength":448,
			"byteOffset":10897196
		},
		{
			"buffer":0,
			"byteLength":24,
			"byteOffset":10897644
		},
		{
			"buffer":0,
			"byteLength":24,
			"byteOffset":10897668
		},
		{
			"buffer":0,
			"byteLength":448,
			"byteOffset":10897692
		},
		{
			"buffer":0,
			"byteLength":24,
			"byteOffset":10898140
		},
		{
			"buffer":0,
			"byteLength":24,
			"byteOffset":10898164
		},
		{
			"buffer":0,
			"byteLength":448,
			"byteOffset":10898188
		},
		{
			"buffer":0,
			"byteLength":24,
			"byteOffset":10898636
		},
		{
			"buffer":0,
			"byteLength":24,
			"byteOffset":10898660
		},
		{
			"buffer":0,
			"byteLength":448,
			"byteOffset":10898684
		},
		{
			"buffer":0,
			"byteLength":24,
			"byteOffset":10899132
		},
		{
			"buffer":0,
			"byteLength":24,
			"byteOffset":10899156
		},
		{
			"buffer":0,
			"byteLength":32,
			"byteOffset":10899180
		},
		{
			"buffer":0,
			"byteLength":24,
			"byteOffset":10899212
		},
		{
			"buffer":0,
			"byteLength":24,
			"byteOffset":10899236
		},
		{
			"buffer":0,
			"byteLength":448,
			"byteOffset":10899260
		},
		{
			"buffer":0,
			"byteLength":24,
			"byteOffset":10899708
		},
		{
			"buffer":0,
			"byteLength":24,
			"byteOffset":10899732
		},
		{
			"buffer":0,
			"byteLength":448,
			"byteOffset":10899756
		},
		{
			"buffer":0,
			"byteLength":24,
			"byteOffset":10900204
		},
		{
			"buffer":0,
			"byteLength":24,
			"byteOffset":10900228
		},
		{
			"buffer":0,
			"byteLength":448,
			"byteOffset":10900252
		},
		{
			"buffer":0,
			"byteLength":24,
			"byteOffset":10900700
		},
		{
			"buffer":0,
			"byteLength":24,
			"byteOffset":10900724
		},
		{
			"buffer":0,
			"byteLength":32,
			"byteOffset":10900748
		},
		{
			"buffer":0,
			"byteLength":24,
			"byteOffset":10900780
		},
		{
			"buffer":0,
			"byteLength":8,
			"byteOffset":10900804
		},
		{
			"buffer":0,
			"byteLength":24,
			"byteOffset":10900812
		},
		{
			"buffer":0,
			"byteLength":32,
			"byteOffset":10900836
		},
		{
			"buffer":0,
			"byteLength":24,
			"byteOffset":10900868
		},
		{
			"buffer":0,
			"byteLength":24,
			"byteOffset":10900892
		},
		{
			"buffer":0,
			"byteLength":32,
			"byteOffset":10900916
		},
		{
			"buffer":0,
			"byteLength":24,
			"byteOffset":10900948
		},
		{
			"buffer":0,
			"byteLength":332,
			"byteOffset":10900972
		},
		{
			"buffer":0,
			"byteLength":996,
			"byteOffset":10901304
		},
		{
			"buffer":0,
			"byteLength":32,
			"byteOffset":10902300
		},
		{
			"buffer":0,
			"byteLength":24,
			"byteOffset":10902332
		},
		{
			"buffer":0,
			"byteLength":24,
			"byteOffset":10902356
		},
		{
			"buffer":0,
			"byteLength":32,
			"byteOffset":10902380
		},
		{
			"buffer":0,
			"byteLength":24,
			"byteOffset":10902412
		},
		{
			"buffer":0,
			"byteLength":24,
			"byteOffset":10902436
		},
		{
			"buffer":0,
			"byteLength":1328,
			"byteOffset":10902460
		},
		{
			"buffer":0,
			"byteLength":24,
			"byteOffset":10903788
		},
		{
			"buffer":0,
			"byteLength":24,
			"byteOffset":10903812
		},
		{
			"buffer":0,
			"byteLength":1328,
			"byteOffset":10903836
		},
		{
			"buffer":0,
			"byteLength":24,
			"byteOffset":10905164
		},
		{
			"buffer":0,
			"byteLength":24,
			"byteOffset":10905188
		},
		{
			"buffer":0,
			"byteLength":1328,
			"byteOffset":10905212
		},
		{
			"buffer":0,
			"byteLength":24,
			"byteOffset":10906540
		},
		{
			"buffer":0,
			"byteLength":24,
			"byteOffset":10906564
		},
		{
			"buffer":0,
			"byteLength":1328,
			"byteOffset":10906588
		},
		{
			"buffer":0,
			"byteLength":24,
			"byteOffset":10907916
		},
		{
			"buffer":0,
			"byteLength":24,
			"byteOffset":10907940
		},
		{
			"buffer":0,
			"byteLength":1328,
			"byteOffset":10907964
		},
		{
			"buffer":0,
			"byteLength":24,
			"byteOffset":10909292
		},
		{
			"buffer":0,
			"byteLength":24,
			"byteOffset":10909316
		},
		{
			"buffer":0,
			"byteLength":1328,
			"byteOffset":10909340
		},
		{
			"buffer":0,
			"byteLength":24,
			"byteOffset":10910668
		},
		{
			"buffer":0,
			"byteLength":24,
			"byteOffset":10910692
		},
		{
			"buffer":0,
			"byteLength":1328,
			"byteOffset":10910716
		},
		{
			"buffer":0,
			"byteLength":24,
			"byteOffset":10912044
		},
		{
			"buffer":0,
			"byteLength":24,
			"byteOffset":10912068
		},
		{
			"buffer":0,
			"byteLength":1328,
			"byteOffset":10912092
		},
		{
			"buffer":0,
			"byteLength":24,
			"byteOffset":10913420
		},
		{
			"buffer":0,
			"byteLength":24,
			"byteOffset":10913444
		},
		{
			"buffer":0,
			"byteLength":1328,
			"byteOffset":10913468
		},
		{
			"buffer":0,
			"byteLength":24,
			"byteOffset":10914796
		},
		{
			"buffer":0,
			"byteLength":24,
			"byteOffset":10914820
		},
		{
			"buffer":0,
			"byteLength":1328,
			"byteOffset":10914844
		},
		{
			"buffer":0,
			"byteLength":24,
			"byteOffset":10916172
		},
		{
			"buffer":0,
			"byteLength":24,
			"byteOffset":10916196
		},
		{
			"buffer":0,
			"byteLength":1328,
			"byteOffset":10916220
		},
		{
			"buffer":0,
			"byteLength":24,
			"byteOffset":10917548
		},
		{
			"buffer":0,
			"byteLength":24,
			"byteOffset":10917572
		},
		{
			"buffer":0,
			"byteLength":1328,
			"byteOffset":10917596
		},
		{
			"buffer":0,
			"byteLength":24,
			"byteOffset":10918924
		},
		{
			"buffer":0,
			"byteLength":24,
			"byteOffset":10918948
		},
		{
			"buffer":0,
			"byteLength":1328,
			"byteOffset":10918972
		},
		{
			"buffer":0,
			"byteLength":24,
			"byteOffset":10920300
		},
		{
			"buffer":0,
			"byteLength":24,
			"byteOffset":10920324
		},
		{
			"buffer":0,
			"byteLength":1328,
			"byteOffset":10920348
		},
		{
			"buffer":0,
			"byteLength":24,
			"byteOffset":10921676
		},
		{
			"buffer":0,
			"byteLength":24,
			"byteOffset":10921700
		},
		{
			"buffer":0,
			"byteLength":1328,
			"byteOffset":10921724
		},
		{
			"buffer":0,
			"byteLength":24,
			"byteOffset":10923052
		},
		{
			"buffer":0,
			"byteLength":24,
			"byteOffset":10923076
		},
		{
			"buffer":0,
			"byteLength":32,
			"byteOffset":10923100
		},
		{
			"buffer":0,
			"byteLength":24,
			"byteOffset":10923132
		},
		{
			"buffer":0,
			"byteLength":24,
			"byteOffset":10923156
		},
		{
			"buffer":0,
			"byteLength":1328,
			"byteOffset":10923180
		},
		{
			"buffer":0,
			"byteLength":24,
			"byteOffset":10924508
		},
		{
			"buffer":0,
			"byteLength":24,
			"byteOffset":10924532
		},
		{
			"buffer":0,
			"byteLength":1328,
			"byteOffset":10924556
		},
		{
			"buffer":0,
			"byteLength":24,
			"byteOffset":10925884
		},
		{
			"buffer":0,
			"byteLength":24,
			"byteOffset":10925908
		},
		{
			"buffer":0,
			"byteLength":1328,
			"byteOffset":10925932
		},
		{
			"buffer":0,
			"byteLength":24,
			"byteOffset":10927260
		},
		{
			"buffer":0,
			"byteLength":24,
			"byteOffset":10927284
		},
		{
			"buffer":0,
			"byteLength":32,
			"byteOffset":10927308
		},
		{
			"buffer":0,
			"byteLength":24,
			"byteOffset":10927340
		},
		{
			"buffer":0,
			"byteLength":8,
			"byteOffset":10927364
		},
		{
			"buffer":0,
			"byteLength":24,
			"byteOffset":10927372
		},
		{
			"buffer":0,
			"byteLength":32,
			"byteOffset":10927396
		},
		{
			"buffer":0,
			"byteLength":24,
			"byteOffset":10927428
		},
		{
			"buffer":0,
			"byteLength":24,
			"byteOffset":10927452
		},
		{
			"buffer":0,
			"byteLength":32,
			"byteOffset":10927476
		},
		{
			"buffer":0,
			"byteLength":24,
			"byteOffset":10927508
		},
		{
			"buffer":0,
			"byteLength":72,
			"byteOffset":10927532
		},
		{
			"buffer":0,
			"byteLength":216,
			"byteOffset":10927604
		},
		{
			"buffer":0,
			"byteLength":288,
			"byteOffset":10927820
		},
		{
			"buffer":0,
			"byteLength":24,
			"byteOffset":10928108
		},
		{
			"buffer":0,
			"byteLength":24,
			"byteOffset":10928132
		},
		{
			"buffer":0,
			"byteLength":288,
			"byteOffset":10928156
		},
		{
			"buffer":0,
			"byteLength":24,
			"byteOffset":10928444
		},
		{
			"buffer":0,
			"byteLength":24,
			"byteOffset":10928468
		},
		{
			"buffer":0,
			"byteLength":288,
			"byteOffset":10928492
		},
		{
			"buffer":0,
			"byteLength":24,
			"byteOffset":10928780
		},
		{
			"buffer":0,
			"byteLength":24,
			"byteOffset":10928804
		},
		{
			"buffer":0,
			"byteLength":288,
			"byteOffset":10928828
		},
		{
			"buffer":0,
			"byteLength":24,
			"byteOffset":10929116
		},
		{
			"buffer":0,
			"byteLength":24,
			"byteOffset":10929140
		},
		{
			"buffer":0,
			"byteLength":288,
			"byteOffset":10929164
		},
		{
			"buffer":0,
			"byteLength":24,
			"byteOffset":10929452
		},
		{
			"buffer":0,
			"byteLength":24,
			"byteOffset":10929476
		},
		{
			"buffer":0,
			"byteLength":288,
			"byteOffset":10929500
		},
		{
			"buffer":0,
			"byteLength":24,
			"byteOffset":10929788
		},
		{
			"buffer":0,
			"byteLength":24,
			"byteOffset":10929812
		},
		{
			"buffer":0,
			"byteLength":288,
			"byteOffset":10929836
		},
		{
			"buffer":0,
			"byteLength":24,
			"byteOffset":10930124
		},
		{
			"buffer":0,
			"byteLength":24,
			"byteOffset":10930148
		},
		{
			"buffer":0,
			"byteLength":288,
			"byteOffset":10930172
		},
		{
			"buffer":0,
			"byteLength":24,
			"byteOffset":10930460
		},
		{
			"buffer":0,
			"byteLength":24,
			"byteOffset":10930484
		},
		{
			"buffer":0,
			"byteLength":288,
			"byteOffset":10930508
		},
		{
			"buffer":0,
			"byteLength":24,
			"byteOffset":10930796
		},
		{
			"buffer":0,
			"byteLength":24,
			"byteOffset":10930820
		},
		{
			"buffer":0,
			"byteLength":288,
			"byteOffset":10930844
		},
		{
			"buffer":0,
			"byteLength":24,
			"byteOffset":10931132
		},
		{
			"buffer":0,
			"byteLength":24,
			"byteOffset":10931156
		},
		{
			"buffer":0,
			"byteLength":288,
			"byteOffset":10931180
		},
		{
			"buffer":0,
			"byteLength":24,
			"byteOffset":10931468
		},
		{
			"buffer":0,
			"byteLength":24,
			"byteOffset":10931492
		},
		{
			"buffer":0,
			"byteLength":288,
			"byteOffset":10931516
		},
		{
			"buffer":0,
			"byteLength":24,
			"byteOffset":10931804
		},
		{
			"buffer":0,
			"byteLength":24,
			"byteOffset":10931828
		},
		{
			"buffer":0,
			"byteLength":288,
			"byteOffset":10931852
		},
		{
			"buffer":0,
			"byteLength":24,
			"byteOffset":10932140
		},
		{
			"buffer":0,
			"byteLength":24,
			"byteOffset":10932164
		},
		{
			"buffer":0,
			"byteLength":288,
			"byteOffset":10932188
		},
		{
			"buffer":0,
			"byteLength":24,
			"byteOffset":10932476
		},
		{
			"buffer":0,
			"byteLength":24,
			"byteOffset":10932500
		},
		{
			"buffer":0,
			"byteLength":288,
			"byteOffset":10932524
		},
		{
			"buffer":0,
			"byteLength":24,
			"byteOffset":10932812
		},
		{
			"buffer":0,
			"byteLength":24,
			"byteOffset":10932836
		},
		{
			"buffer":0,
			"byteLength":288,
			"byteOffset":10932860
		},
		{
			"buffer":0,
			"byteLength":24,
			"byteOffset":10933148
		},
		{
			"buffer":0,
			"byteLength":24,
			"byteOffset":10933172
		},
		{
			"buffer":0,
			"byteLength":288,
			"byteOffset":10933196
		},
		{
			"buffer":0,
			"byteLength":24,
			"byteOffset":10933484
		},
		{
			"buffer":0,
			"byteLength":24,
			"byteOffset":10933508
		},
		{
			"buffer":0,
			"byteLength":32,
			"byteOffset":10933532
		},
		{
			"buffer":0,
			"byteLength":24,
			"byteOffset":10933564
		},
		{
			"buffer":0,
			"byteLength":24,
			"byteOffset":10933588
		},
		{
			"buffer":0,
			"byteLength":288,
			"byteOffset":10933612
		},
		{
			"buffer":0,
			"byteLength":24,
			"byteOffset":10933900
		},
		{
			"buffer":0,
			"byteLength":24,
			"byteOffset":10933924
		},
		{
			"buffer":0,
			"byteLength":288,
			"byteOffset":10933948
		},
		{
			"buffer":0,
			"byteLength":24,
			"byteOffset":10934236
		},
		{
			"buffer":0,
			"byteLength":24,
			"byteOffset":10934260
		},
		{
			"buffer":0,
			"byteLength":288,
			"byteOffset":10934284
		},
		{
			"buffer":0,
			"byteLength":24,
			"byteOffset":10934572
		},
		{
			"buffer":0,
			"byteLength":24,
			"byteOffset":10934596
		},
		{
			"buffer":0,
			"byteLength":32,
			"byteOffset":10934620
		},
		{
			"buffer":0,
			"byteLength":24,
			"byteOffset":10934652
		}
	],
	"samplers":[
		{
			"magFilter":9729,
			"minFilter":9987
		}
	],
	"buffers":[
		{
			"byteLength":10934676,
			"uri":"rooster.bin"
		}
	]
}
