{
	"asset":{
		"generator":"Khronos glTF Blender I/O v4.3.47",
		"version":"2.0"
	},
	"extensionsUsed":[
		"KHR_materials_unlit"
	],
	"scene":0,
	"scenes":[
		{
			"name":"Scene",
			"nodes":[
				0,
				1
			]
		}
	],
	"nodes":[
		{
			"mesh":0,
			"name":"garage"
		},
		{
			"camera":0,
			"name":"Camera",
			"rotation":[
				-0.06675966829061508,
				0.36660563945770264,
				0.02638544701039791,
				0.9276029467582703
			],
			"scale":[
				3.4685683250427246,
				3.4685683250427246,
				3.4685680866241455
			],
			"translation":[
				25.538604736328125,
				5.00465202331543,
				28.454391479492188
			]
		}
	],
	"cameras":[
		{
			"name":"Camera.001",
			"perspective":{
				"aspectRatio":1.7777777777777777,
				"yfov":0.7984415303927126,
				"zfar":1000,
				"znear":0.10000000149011612
			},
			"type":"perspective"
		}
	],
	"materials":[
		{
			"doubleSided":true,
			"extensions":{
				"KHR_materials_unlit":{}
			},
			"name":"combined map",
			"pbrMetallicRoughness":{
				"baseColorTexture":{
					"index":0
				},
				"metallicFactor":0,
				"roughnessFactor":0.9
			}
		}
	],
	"meshes":[
		{
			"name":"Cube.001",
			"primitives":[
				{
					"attributes":{
						"POSITION":0,
						"NORMAL":1,
						"TEXCOORD_0":2,
						"COLOR_0":3,
						"COLOR_1":4,
						"COLOR_2":5
					},
					"indices":6,
					"material":0
				}
			]
		}
	],
	"textures":[
		{
			"sampler":0,
			"source":0
		}
	],
	"images":[
		{
			"mimeType":"image/png",
			"name":"combined map",
			"uri":"combined%20map.png"
		}
	],
	"accessors":[
		{
			"bufferView":0,
			"componentType":5126,
			"count":1042608,
			"max":[
				30.760848999023438,
				23.397714614868164,
				44.37275314331055
			],
			"min":[
				-9.587760925292969,
				-5.576071262359619,
				-33.978580474853516
			],
			"type":"VEC3"
		},
		{
			"bufferView":1,
			"componentType":5126,
			"count":1042608,
			"type":"VEC3"
		},
		{
			"bufferView":2,
			"componentType":5126,
			"count":1042608,
			"type":"VEC2"
		},
		{
			"bufferView":3,
			"componentType":5121,
			"count":1042608,
			"normalized":true,
			"type":"VEC4"
		},
		{
			"bufferView":4,
			"componentType":5123,
			"count":1042608,
			"normalized":true,
			"type":"VEC4"
		},
		{
			"bufferView":5,
			"componentType":5123,
			"count":1042608,
			"normalized":true,
			"type":"VEC4"
		},
		{
			"bufferView":6,
			"componentType":5125,
			"count":1477755,
			"type":"SCALAR"
		}
	],
	"bufferViews":[
		{
			"buffer":0,
			"byteLength":12511296,
			"byteOffset":0,
			"target":34962
		},
		{
			"buffer":0,
			"byteLength":12511296,
			"byteOffset":12511296,
			"target":34962
		},
		{
			"buffer":0,
			"byteLength":8340864,
			"byteOffset":25022592,
			"target":34962
		},
		{
			"buffer":0,
			"byteLength":4170432,
			"byteOffset":33363456,
			"target":34962
		},
		{
			"buffer":0,
			"byteLength":8340864,
			"byteOffset":37533888,
			"target":34962
		},
		{
			"buffer":0,
			"byteLength":8340864,
			"byteOffset":45874752,
			"target":34962
		},
		{
			"buffer":0,
			"byteLength":5911020,
			"byteOffset":54215616,
			"target":34963
		}
	],
	"samplers":[
		{
			"magFilter":9729,
			"minFilter":9987
		}
	],
	"buffers":[
		{
			"byteLength":60126636,
			"uri":"project2-interactiveBikeGarage-cart263.bin"
		}
	]
}
